<?xml version="1.0" encoding="UTF-8"?>
<svg width="37px" height="23px" viewBox="0 0 37 23" version="1.1" xmlns="http://www.w3.org/2000/svg" xmlns:xlink="http://www.w3.org/1999/xlink">
    <!-- Generator: Sketch 43.2 (39069) - http://www.bohemiancoding.com/sketch -->
    <title>behance</title>
    <desc>Created with Sketch.</desc>
    <defs></defs>
    <g id="Page-1" stroke="none" stroke-width="1" fill="none" fill-rule="evenodd">
        <g id="behance" fill-rule="nonzero" fill="#1769FF">
            <path d="M23.2790855,3.79945031 L32.9265823,3.79945031 L32.9265823,1.03544527 L23.2790855,1.03544527 L23.2790855,3.79945031 L23.2790855,3.79945031 Z M25.5645827,9.83039092 C24.9498332,10.4558844 24.5621339,11.3032589 24.4036266,12.3725147 L31.9069982,12.3725147 C31.8277446,11.2314118 31.4379035,10.3692451 30.748184,9.77544886 C30.0498972,9.18587896 29.1909614,8.89215065 28.1628092,8.89215065 C27.0489771,8.89215065 26.1793322,9.20489734 25.5645827,9.83039092 L25.5645827,9.83039092 L25.5645827,9.83039092 Z M32.0762146,6.11969298 C33.2393124,6.63107625 34.1967791,7.44252723 34.9507578,8.54981974 C35.6383347,9.52609675 36.0795834,10.6587471 36.2809295,11.9456577 C36.398739,12.6979403 36.4458622,13.7883277 36.426585,15.2062537 L24.2965278,15.2062537 C24.3693552,16.8524004 24.9434069,18.0082956 26.0401029,18.6697126 C26.7041182,19.0817776 27.5030783,19.2888668 28.441267,19.2888668 C29.4287223,19.2888668 30.2362497,19.0374014 30.8552836,18.536584 C31.195859,18.2639872 31.4957366,17.8878458 31.7527746,17.4060468 L36.1973922,17.4060468 C36.0795834,18.3780975 35.5398032,19.3691665 34.5844783,20.3750277 C33.0936569,21.9704586 31.0052228,22.7692308 28.3213164,22.7692308 C26.1043622,22.7692308 24.1487304,22.097248 22.4587055,20.7490559 C20.7601118,19.402977 19.9161695,17.2095235 19.9161695,14.1750348 C19.9161695,11.3286168 20.6808582,9.14572907 22.2080929,7.62637162 C23.7396121,6.11124044 25.7209473,5.3483919 28.1606674,5.3483919 C29.6107903,5.3483919 30.9152593,5.60619666 32.0762146,6.11969298 L32.0762146,6.11969298 L32.0762146,6.11969298 Z M4.48745715,12.431683 L4.48745715,18.3548528 L9.95380072,18.3548528 C10.9305461,18.3548528 11.6930922,18.2238372 12.2350143,17.9639193 C13.2224688,17.477894 13.7151251,16.5565591 13.7151251,15.1914617 C13.7151251,14.0334535 13.2396049,13.2410209 12.2821375,12.8078244 C11.7466416,12.5669249 10.9948054,12.4401356 10.0309125,12.431683 L4.48745715,12.431683 L4.48745715,12.431683 Z M4.48745715,3.85650545 L4.48745715,8.75690878 L9.96236878,8.75690878 C10.9369715,8.75690878 11.7316481,8.57306439 12.3442557,8.2053757 C12.952579,7.83768693 13.2588828,7.1868356 13.2588828,6.25704799 C13.2588828,5.21948959 12.85619,4.53694091 12.0508036,4.20306263 C11.3525168,3.97272886 10.465735,3.85650545 9.38831701,3.85650545 L4.48745715,3.85650545 L4.48745715,3.85650545 Z M16.7139034,2.36673213 C17.4014802,3.31131177 17.74634,4.43973588 17.74634,5.75623056 C17.74634,7.11076208 17.4014802,8.20326256 16.7053353,9.02739244 C16.3154942,9.48805999 15.7435842,9.91069069 14.9874636,10.2910584 C16.1355679,10.7052365 17.0009293,11.358201 17.5899746,12.2520649 C18.1725944,13.1438158 18.4660465,14.2299768 18.4660465,15.5063217 C18.4660465,16.8228164 18.1318967,18.0040693 17.4614559,19.0479672 C17.0373433,19.7389684 16.5061311,20.3221989 15.8678192,20.7955453 C15.1502545,21.3386258 14.3041712,21.7084277 13.325284,21.9112904 C12.3463976,22.11204 11.2882575,22.2092451 10.1444376,22.2092451 L0,22.2092451 L0,0 L10.8791385,0 C13.6251623,0.0401499182 15.5679416,0.828356228 16.7139034,2.36673213 L16.7139034,2.36673213 L16.7139034,2.36673213 Z" id="Behance"></path>
        </g>
    </g>
</svg>