<?xml version="1.0" encoding="UTF-8"?>
<svg width="24px" height="24px" viewBox="0 0 24 24" version="1.1" xmlns="http://www.w3.org/2000/svg" xmlns:xlink="http://www.w3.org/1999/xlink">
    <!-- Generator: Sketch 43.2 (39069) - http://www.bohemiancoding.com/sketch -->
    <title>dribbble</title>
    <desc>Created with Sketch.</desc>
    <defs></defs>
    <g id="Page-1" stroke="none" stroke-width="1" fill="none" fill-rule="evenodd">
        <g id="dribbble" fill-rule="nonzero" fill="#EC4989">
            <path d="M17.7272885,20.4992651 C17.6228614,19.8812393 17.076733,16.8729496 15.7318753,13.1803163 C19.0411007,12.6511846 21.9072146,13.5584691 22.118892,13.6276089 C21.6630798,16.4835087 20.0275179,18.9457346 17.7272885,20.4992651 L17.7272885,20.4992651 L17.7272885,20.4992651 Z M12.0007054,22.248927 C9.5198447,22.248927 7.2450167,21.367041 5.47115896,19.8995826 C5.6066327,20.0096419 5.70118174,20.0787818 5.70118174,20.0787818 C5.70118174,20.0787818 7.66554939,15.7949321 13.7435176,13.6769945 C13.7660963,13.6685284 13.7900864,13.6628843 13.8126652,13.6558293 C15.2548951,17.4020813 15.8490031,20.5401846 16.001411,21.4361809 C14.7722703,21.9582574 13.4189452,22.248927 12.0007054,22.248927 L12.0007054,22.248927 L12.0007054,22.248927 Z M1.75127896,11.9992945 C1.75127896,11.8906461 1.75692365,11.7834088 1.75974574,11.6761714 C1.94178887,11.6804045 7.0051153,11.7946969 12.281531,10.2157681 C12.5750572,10.7900523 12.8558828,11.3756247 13.1127183,11.958375 C12.9772445,11.9950614 12.8431821,12.035981 12.7091197,12.0811335 C7.17869113,13.8674819 4.37325809,18.8427303 4.37325809,18.8427303 C4.37325809,18.8427303 4.37749148,18.8469634 4.37749148,18.8483744 C2.74475217,17.0323946 1.75127896,14.6322535 1.75127896,11.9992945 L1.75127896,11.9992945 L1.75127896,11.9992945 Z M7.6274473,2.73314128 C7.76433235,2.91516256 9.65955183,5.48462577 11.4334096,8.6368393 C6.51261235,9.94485271 2.24095983,9.8926451 1.97142365,9.88841202 C2.63609113,6.71362221 4.76838939,4.08207419 7.6274473,2.73314128 L7.6274473,2.73314128 L7.6274473,2.73314128 Z M9.54524609,2.05020871 C9.54524609,2.05161973 9.54383478,2.05303075 9.54383478,2.05303075 C9.54383478,2.05303075 9.53113409,2.05585278 9.5127887,2.05867482 C9.52407809,2.05585278 9.5339567,2.05444177 9.54524609,2.05020871 L9.54524609,2.05020871 L9.54524609,2.05020871 Z M18.7687424,4.31065906 C18.743341,4.34875654 17.284177,6.57110943 13.4147118,8.02022457 C11.6634329,4.8016932 9.73857809,2.24492915 9.58475896,2.04174261 C10.3594988,1.85407725 11.1681073,1.75248398 12.0007054,1.75248398 C14.594461,1.75248398 16.9638386,2.72044212 18.7687424,4.31065906 L18.7687424,4.31065906 L18.7687424,4.31065906 Z M22.245899,11.8977012 C22.0977245,11.8652478 18.6290353,11.1188194 15.108132,11.561879 C15.0347504,11.3869128 14.9627802,11.2105356 14.886576,11.0341584 C14.6734873,10.5318361 14.4434645,10.0351579 14.2049744,9.54694576 C18.2522489,7.894644 19.8948668,5.51990123 19.9146235,5.49168089 C21.3512082,7.23710979 22.2219089,9.46651774 22.245899,11.8977012 L22.245899,11.8977012 L22.245899,11.8977012 Z M23.7572765,9.5850432 C23.599224,8.81462755 23.3621452,8.05408899 23.0559183,7.3288259 C22.7567473,6.61767297 22.3827835,5.93191842 21.9495501,5.29131637 C21.5219614,4.6563584 21.0280471,4.05808689 20.4861527,3.5162561 C19.942847,2.97301429 19.3459163,2.48056911 18.7094723,2.05161973 C18.068795,1.61702628 17.38296,1.24592863 16.6717237,0.943970838 C15.9463748,0.639191014 15.1871583,0.402140045 14.4166518,0.245517078 C13.6263892,0.0832500417 12.8135473,0 12.0007054,0 C11.1864527,0 10.3736108,0.0832500417 9.58334817,0.245517078 C8.81284174,0.402140045 8.05362522,0.639191014 7.32827635,0.943970838 C6.61704,1.24592863 5.93120504,1.61702628 5.28911635,2.05161973 C4.65408365,2.48056911 4.05715304,2.97301429 3.5138473,3.5162561 C2.97195287,4.05808689 2.47944939,4.6563584 2.05044991,5.29131637 C1.61721652,5.93191842 1.2432527,6.61767297 0.944081739,7.3288259 C0.636444,8.05408899 0.400776,8.81462755 0.242723478,9.5850432 C0.0818488696,10.3738021 0,11.1865483 0,11.9992945 C0,12.8148627 0.0818488696,13.6276089 0.242723478,14.4177788 C0.400776,15.1881945 0.636444,15.947322 0.944081739,16.6711741 C1.2432527,17.382327 1.61721652,18.0709036 2.05044991,18.7115057 C2.47944939,19.3464637 2.97195287,19.9419131 3.5138473,20.4865659 C4.05715304,21.0283967 4.65408365,21.5194309 5.28911635,21.9497913 C5.93120504,22.3829737 6.61704,22.7554824 7.32827635,23.0560292 C8.05362522,23.363631 8.81284174,23.59786 9.58334817,23.7544829 C10.3736108,23.918161 11.1864527,24 12.0007054,24 C12.8135473,24 13.6263892,23.918161 14.4166518,23.7544829 C15.1871583,23.59786 15.9463748,23.363631 16.6717237,23.0560292 C17.38296,22.7554824 18.068795,22.3829737 18.7094723,21.9497913 C19.3459163,21.5194309 19.942847,21.0283967 20.4861527,20.4865659 C21.0280471,19.9419131 21.5219614,19.3464637 21.9495501,18.7115057 C22.3827835,18.0709036 22.7567473,17.382327 23.0559183,16.6711741 C23.3621452,15.947322 23.599224,15.1881945 23.7572765,14.4177788 C23.9181511,13.6276089 24,12.8148627 24,11.9992945 C24,11.1865483 23.9181511,10.3738021 23.7572765,9.5850432 L23.7572765,9.5850432 L23.7572765,9.5850432 Z" id="Dribbble"></path>
        </g>
    </g>
</svg>