<?xml version="1.0" encoding="UTF-8"?>
<svg width="25px" height="24px" viewBox="0 0 25 24" version="1.1" xmlns="http://www.w3.org/2000/svg" xmlns:xlink="http://www.w3.org/1999/xlink">
    <!-- Generator: Sketch 43.2 (39069) - http://www.bohemiancoding.com/sketch -->
    <title>github</title>
    <desc>Created with Sketch.</desc>
    <defs></defs>
    <g id="Page-1" stroke="none" stroke-width="1" fill="none" fill-rule="evenodd">
        <g id="github" fill-rule="nonzero" fill="#3E75C3">
            <path d="M12.2545532,0 C5.48731915,0 0,5.50830235 0,12.3046693 C0,17.7399172 3.51114894,22.3515728 8.38187234,23.9787636 C8.9946383,24.0918057 9.21829787,23.7119228 9.21829787,23.3858694 C9.21829787,23.0936518 9.20757447,22.3200441 9.20144681,21.2934374 C5.79217021,22.0370543 5.07293617,19.6439458 5.07293617,19.6439458 C4.51608511,18.2228453 3.71259574,17.8445004 3.71259574,17.8445004 C2.59965957,17.0808896 3.79685106,17.0962694 3.79685106,17.0962694 C5.02621277,17.1831657 5.67344681,18.3643401 5.67344681,18.3643401 C6.76723404,20.2445299 8.54195745,19.7016203 9.24051064,19.3863328 C9.35157447,18.5911933 9.66868085,18.0490527 10.0187234,17.7414552 C7.2972766,17.4307817 4.43642553,16.3757223 4.43642553,11.6610215 C4.43642553,10.3175894 4.91361702,9.21946626 5.69795745,8.35896225 C5.57157447,8.04751976 5.15106383,6.7971359 5.81744681,5.10304263 C5.81744681,5.10304263 6.84689362,4.77237532 9.18765957,6.36419239 C10.1657872,6.09119964 11.213617,5.95508773 12.2560851,5.94970478 C13.2970213,5.95508773 14.345617,6.09119964 15.3245106,6.36419239 C17.6637447,4.77237532 18.6908936,5.10304263 18.6908936,5.10304263 C19.3595745,6.7971359 18.9390638,8.04751976 18.8126809,8.35896225 C19.5985532,9.21946626 20.0726809,10.3175894 20.0726809,11.6610215 C20.0726809,16.3872571 17.207234,17.4277058 14.4773617,17.7322273 C14.9170213,18.1121102 15.3091915,18.8626481 15.3091915,20.0107558 C15.3091915,21.6556335 15.2938723,22.9821477 15.2938723,23.3858694 C15.2938723,23.7149988 15.5144681,24.0979577 16.1364255,23.9772256 C21.0025532,22.3469588 24.5106383,17.7383792 24.5106383,12.3046693 C24.5106383,5.50830235 19.0233191,0 12.2545532,0" id="Github"></path>
        </g>
    </g>
</svg>