<?xml version="1.0" encoding="UTF-8"?>
<svg width="141px" height="38px" viewBox="0 0 141 38" version="1.1" xmlns="http://www.w3.org/2000/svg" xmlns:xlink="http://www.w3.org/1999/xlink">
    <!-- Generator: Sketch 43.2 (39069) - http://www.bohemiancoding.com/sketch -->
    <title>Page 1</title>
    <desc>Created with Sketch.</desc>
    <defs></defs>
    <g id="Page-1" stroke="none" stroke-width="1" fill="none" fill-rule="evenodd">
        <g>
            <path d="M25.3342,37.4979 L12.7162,37.4979 C12.5142,37.4979 12.3192,37.4269 12.1642,37.2969 L2.4982,29.1879 C2.3432,29.0579 2.2392,28.8769 2.2042,28.6779 L0.0132,16.2519 C-0.0218,16.0529 0.0142,15.8479 0.1152,15.6729 L6.4242,4.7459 C6.5252,4.5709 6.6852,4.4369 6.8742,4.3679 L18.7312,0.0509 C18.9212,-0.0171 19.1292,-0.0171 19.3192,0.0509 L31.1762,4.3679 C31.3662,4.4369 31.5262,4.5709 31.6272,4.7459 L37.9352,15.6729 C38.0372,15.8479 38.0732,16.0529 38.0382,16.2519 L35.8462,28.6779 C35.8112,28.8769 35.7072,29.0579 35.5522,29.1879 L25.8872,37.2969 C25.7322,37.4269 25.5362,37.4979 25.3342,37.4979 L25.3342,37.4979 Z M13.0292,35.7779 L25.0212,35.7779 L34.2072,28.0709 L36.2902,16.2619 L30.2942,5.8769 L19.0252,1.7739 L7.7572,5.8769 L1.7612,16.2619 L3.8432,28.0709 L13.0292,35.7779 Z" id="Fill-1" fill="#C1D52F"></path>
            <path d="M55.7771,8.699 C55.2551,8.041 54.5751,7.632 53.7581,7.485 C52.9871,7.345 52.1021,7.275 51.1251,7.275 L47.3931,7.275 L47.3931,30.127 L49.4961,30.127 L49.4961,19.973 L51.4911,19.973 C51.6181,19.973 51.8211,19.968 52.0971,19.957 C52.3791,19.946 52.6941,19.908 53.0311,19.842 C53.3681,19.776 53.7201,19.677 54.0741,19.547 C54.4441,19.412 54.8021,19.207 55.1281,18.945 C55.4981,18.673 55.7931,18.361 56.0031,18.018 C56.2091,17.683 56.3601,17.336 56.4531,16.986 C56.5431,16.644 56.5941,16.301 56.6061,15.966 C56.6171,15.648 56.6221,15.34 56.6221,15.043 L56.6221,12.52 C56.6221,11.715 56.5791,11.003 56.4941,10.402 C56.4031,9.771 56.1631,9.198 55.7771,8.699 M54.5521,13.123 L54.5521,15.034 C54.5521,15.375 54.5261,15.743 54.4751,16.127 C54.4281,16.486 54.3141,16.815 54.1361,17.105 C53.9641,17.383 53.6891,17.62 53.3171,17.806 C52.9381,17.995 52.3871,18.092 51.6791,18.092 L49.4651,18.092 L49.4651,9.157 L51.5541,9.157 C52.2351,9.157 52.7851,9.217 53.1881,9.335 C53.5631,9.444 53.8411,9.628 54.0381,9.895 C54.2411,10.172 54.3771,10.564 54.4441,11.059 C54.5151,11.59 54.5521,12.285 54.5521,13.123" id="Fill-4" fill="#FFFFFF"></path>
            <path d="M62.2893,7.1805 L58.1263,30.0945 L60.3013,30.0945 L61.4683,23.3155 L65.6923,23.3155 L66.8263,30.0945 L69.0033,30.0945 L64.8723,7.1805 L62.2893,7.1805 Z M65.3193,21.3385 L61.8123,21.3385 L63.5833,11.1645 C63.5873,11.1515 63.5893,11.1395 63.5933,11.1265 C63.6083,11.2115 63.6233,11.2805 63.6373,11.3345 L65.3193,21.3385 Z" id="Fill-6" fill="#FFFFFF"></path>
            <path d="M78.2024,25.6063 C78.2024,25.7693 78.1854,26.0193 78.1564,26.3543 C78.1284,26.6693 78.0364,26.9893 77.8834,27.3043 C77.7364,27.6113 77.4944,27.8853 77.1674,28.1203 C76.8484,28.3493 76.3784,28.4653 75.7674,28.4653 C75.0544,28.4653 74.5054,28.3283 74.1364,28.0583 C73.7624,27.7863 73.4864,27.4193 73.3164,26.9653 C73.1394,26.4883 73.0344,25.9263 73.0044,25.2943 C72.9724,24.6483 72.9574,23.9573 72.9574,23.2413 L72.9574,12.3943 C72.9574,11.3203 73.1734,10.4753 73.5984,9.8823 C74.0094,9.3093 74.7084,9.0303 75.7364,9.0303 C76.1304,9.0303 76.5064,9.1213 76.8524,9.3003 C77.1914,9.4763 77.4474,9.7423 77.6284,10.1033 C77.7064,10.2803 77.7694,10.4633 77.8174,10.6463 C77.8664,10.8323 77.9054,11.0883 77.9354,11.4093 C77.9664,11.7413 77.9804,12.1743 77.9804,12.6943 L77.9804,15.0213 L80.0534,15.0213 L80.0534,11.6373 C80.0534,11.0303 79.9914,10.4983 79.8694,10.0543 C79.7474,9.6093 79.5884,9.2303 79.3964,8.9273 C79.2064,8.6233 78.9974,8.3753 78.7754,8.1883 C78.5674,8.0133 78.3714,7.8673 78.1984,7.7583 C77.8144,7.5103 77.3874,7.3343 76.9294,7.2343 C75.8864,7.0043 74.7834,7.0423 73.7684,7.3493 C73.1684,7.5313 72.6144,7.8953 72.1344,8.4213 C71.5044,9.0273 71.1344,9.6933 71.0314,10.4013 C70.9344,11.0613 70.8864,11.8383 70.8864,12.7093 L70.8864,24.7863 C70.8864,25.3443 70.9084,25.8363 70.9514,26.2483 C70.9944,26.6703 71.0544,27.0373 71.1304,27.3413 C71.2094,27.6553 71.3174,27.9413 71.4554,28.1923 C71.5874,28.4363 71.7454,28.6733 71.9254,28.8973 C72.2814,29.3203 72.7484,29.6863 73.3114,29.9853 C73.8844,30.2883 74.6204,30.4413 75.5014,30.4413 C76.6784,30.4413 77.6044,30.2433 78.2544,29.8523 C78.8994,29.4623 79.3824,28.9893 79.6864,28.4473 C79.9864,27.9143 80.1684,27.3713 80.2234,26.8313 C80.2794,26.3103 80.3054,25.9093 80.3054,25.6063 L80.3054,21.9063 L78.2024,21.9063 L78.2024,25.6063 Z" id="Fill-8" fill="#FFFFFF"></path>
            <path d="M91.4856,8.8094 C91.0566,8.1784 90.4916,7.7214 89.8026,7.4504 C88.4076,6.9024 86.7466,6.9354 85.3986,7.4834 C84.6786,7.7754 84.0886,8.2534 83.6426,8.8994 C83.3736,9.2824 83.1636,9.7624 83.0196,10.3264 C82.8786,10.8794 82.8056,11.6174 82.8056,12.5194 L82.8056,25.0704 C82.8056,25.3044 82.8106,25.5904 82.8216,25.9294 C82.8336,26.2814 82.8816,26.6594 82.9696,27.0504 C83.0576,27.4484 83.1976,27.8444 83.3826,28.2274 C83.5776,28.6244 83.8506,28.9864 84.2016,29.3014 C84.5496,29.6174 85.0026,29.8784 85.5486,30.0784 C86.0896,30.2774 86.7516,30.3784 87.5146,30.3784 C88.6116,30.3784 89.4976,30.1684 90.1476,29.7534 C90.7856,29.3464 91.2576,28.9124 91.5506,28.4614 C91.8846,27.9504 92.0986,27.3954 92.1896,26.8134 C92.2766,26.2554 92.3196,25.7324 92.3196,25.2594 L92.3196,12.9924 C92.3196,12.3204 92.2866,11.6114 92.2226,10.8894 C92.1566,10.1324 91.9086,9.4334 91.4856,8.8094 M88.9246,28.1554 C88.5476,28.3814 88.0946,28.4974 87.5786,28.4974 C86.9416,28.4974 86.3756,28.3314 85.8996,28.0064 C85.4636,27.7014 85.1816,27.3144 85.0396,26.8204 C84.8896,26.2994 84.8146,25.5154 84.8146,24.4884 L84.8146,12.1844 C84.8146,12.0814 84.8196,11.9224 84.8296,11.7054 C84.8386,11.5014 84.8686,11.2764 84.9186,11.0354 C84.9656,10.8064 85.0486,10.5664 85.1666,10.3214 C85.2796,10.0854 85.4426,9.8594 85.6526,9.6494 C86.1296,9.1684 86.7586,8.9364 87.5786,8.9364 C87.9446,8.9364 88.2996,8.9994 88.6366,9.1254 C88.9676,9.2484 89.2496,9.4244 89.4686,9.6454 C89.8676,10.0634 90.1086,10.6454 90.1856,11.3744 C90.2696,12.1524 90.3106,12.9774 90.3106,13.8294 L90.3106,24.7104 C90.3106,25.4234 90.2296,26.1094 90.0676,26.7494 C89.9156,27.3474 89.5446,27.8054 88.9246,28.1554" id="Fill-10" fill="#FFFFFF"></path>
            <path d="M110.7815,9.5653 C110.2515,8.7893 109.4945,8.2053 108.5335,7.8293 C107.5925,7.4613 106.3445,7.2753 104.8265,7.2753 L102.6715,7.2753 L102.6715,30.0953 L105.8675,30.0953 C106.7765,30.0953 107.5775,29.9733 108.2435,29.7323 C108.9105,29.4913 109.4775,29.1793 109.9295,28.8043 C110.3835,28.4283 110.7475,28.0123 111.0105,27.5703 C111.2715,27.1373 111.4705,26.7163 111.6045,26.3133 C111.6705,26.0993 111.7335,25.8643 111.7995,25.6073 C111.8635,25.3453 111.9185,25.0273 111.9625,24.6593 C112.0055,24.2933 112.0385,23.8623 112.0575,23.3793 C112.0795,22.8893 112.0905,22.3023 112.0905,21.6333 L112.0905,16.6823 C112.0905,15.0803 112.0055,13.6773 111.8345,12.5143 C111.6615,11.3223 111.3065,10.3303 110.7815,9.5653 M110.0185,16.6953 L110.0185,21.7793 C110.0185,22.8293 109.9675,23.7033 109.8645,24.3773 C109.7645,25.0363 109.6335,25.5813 109.4725,25.9953 C109.3155,26.3983 109.1415,26.7123 108.9545,26.9313 C108.7605,27.1553 108.5645,27.3363 108.3755,27.4703 C108.1195,27.6493 107.8595,27.7943 107.6065,27.9023 C107.3585,28.0083 107.0865,28.0823 106.7975,28.1213 C106.4975,28.1613 106.1585,28.1873 105.7885,28.1973 C105.4815,28.2063 105.1335,28.2113 104.7425,28.2133 L104.7425,9.2523 C105.1745,9.2573 105.6175,9.2723 106.0625,9.2983 C106.5815,9.3283 107.0695,9.4193 107.5155,9.5693 C107.9465,9.7143 108.3415,9.9593 108.6865,10.2973 C109.0315,10.6353 109.3165,11.1173 109.5295,11.7213 C109.7115,12.2883 109.8395,12.9873 109.9115,13.7963 C109.9825,14.6203 110.0185,15.5953 110.0185,16.6953" id="Fill-12" fill="#FFFFFF"></path>
            <polygon id="Fill-14" fill="#FFFFFF" points="115.096 30.095 117.23 30.095 117.23 7.307 115.096 7.307"></polygon>
            <path d="M123.4016,7.1805 L119.2386,30.0945 L121.4136,30.0945 L122.5796,23.3155 L126.8036,23.3155 L127.9386,30.0945 L130.1156,30.0945 L125.9846,7.1805 L123.4016,7.1805 Z M126.4306,21.3385 L122.9226,21.3385 L124.6956,11.1645 C124.6996,11.1515 124.7016,11.1395 124.7046,11.1275 C124.7196,11.2115 124.7346,11.2805 124.7486,11.3345 L126.4306,21.3385 Z" id="Fill-16" fill="#FFFFFF"></path>
            <path d="M136.0539,21.5584 C136.4209,20.5884 136.7689,19.6614 137.0949,18.7774 C137.4199,17.8934 137.7679,16.9564 138.1359,15.9674 C138.5029,14.9784 138.9079,13.9054 139.3489,12.7474 C139.7889,11.5904 140.3049,10.2424 140.8949,8.7064 L140.9109,7.3074 L132.5329,7.3074 L132.5329,9.1884 L138.4739,9.1884 L131.2259,28.7314 L131.2089,30.0954 L140.8789,30.0954 L140.8789,28.2124 L133.5849,28.2124 C134.0759,26.9034 134.5119,25.7314 134.8889,24.6974 C135.2969,23.5724 135.6869,22.5254 136.0539,21.5584" id="Fill-17" fill="#FFFFFF"></path>
            <path d="M23.5984,13.9471 C23.6064,13.9271 23.6134,13.9081 23.6194,13.8881 C23.6244,13.8691 23.6294,13.8491 23.6334,13.8281 C23.6374,13.8091 23.6404,13.7901 23.6424,13.7701 C23.6444,13.7491 23.6454,13.7301 23.6454,13.7101 C23.6454,13.6891 23.6444,13.6691 23.6424,13.6491 C23.6404,13.6281 23.6374,13.6091 23.6334,13.5901 C23.6294,13.5701 23.6244,13.5501 23.6194,13.5301 C23.6134,13.5101 23.6064,13.4911 23.5984,13.4711 C23.5904,13.4541 23.5834,13.4361 23.5734,13.4181 C23.5634,13.3981 23.5514,13.3781 23.5384,13.3601 C23.5324,13.3501 23.5274,13.3401 23.5214,13.3311 C23.5164,13.3251 23.5104,13.3201 23.5054,13.3141 C23.4914,13.2971 23.4764,13.2801 23.4604,13.2651 C23.4444,13.2491 23.4294,13.2351 23.4144,13.2211 C23.4074,13.2161 23.4024,13.2101 23.3954,13.2051 L15.8344,7.5341 C15.7814,7.4951 15.7244,7.4671 15.6664,7.4471 L15.6664,6.1481 C15.6664,5.8001 15.3844,5.5181 15.0364,5.5181 C14.6884,5.5181 14.4064,5.8001 14.4064,6.1481 L14.4064,21.2711 C14.4064,21.6191 14.6884,21.9011 15.0364,21.9011 C15.3844,21.9011 15.6664,21.6191 15.6664,21.2711 L15.6664,19.9721 C15.7254,19.9521 15.7814,19.9241 15.8344,19.8851 L23.3954,14.2131 C23.3994,14.2111 23.4024,14.2061 23.4054,14.2031 C23.4184,14.1941 23.4294,14.1821 23.4414,14.1711 C23.4654,14.1491 23.4874,14.1261 23.5074,14.1021 C23.5114,14.0971 23.5174,14.0931 23.5214,14.0881 C23.5274,14.0771 23.5324,14.0681 23.5384,14.0581 C23.5514,14.0401 23.5634,14.0201 23.5734,14.0001 C23.5834,13.9821 23.5904,13.9661 23.5984,13.9471 L23.5984,13.9471 Z M15.6664,18.4351 L15.6664,8.9841 L21.9664,13.7101 L15.6664,18.4351 Z" id="Fill-18" fill="#C1D52F"></path>
            <path d="M14.4524,23.5487 C14.4444,23.5687 14.4374,23.5887 14.4314,23.6087 C14.4264,23.6287 14.4214,23.6477 14.4174,23.6687 C14.4134,23.6877 14.4104,23.7077 14.4084,23.7267 C14.4064,23.7477 14.4054,23.7667 14.4054,23.7877 C14.4054,23.8077 14.4064,23.8277 14.4084,23.8477 C14.4104,23.8677 14.4134,23.8877 14.4174,23.9067 C14.4214,23.9267 14.4264,23.9457 14.4314,23.9667 C14.4374,23.9867 14.4444,24.0057 14.4524,24.0247 C14.4594,24.0437 14.4674,24.0607 14.4764,24.0787 C14.4874,24.0987 14.4994,24.1177 14.5124,24.1377 C14.5184,24.1467 14.5224,24.1557 14.5294,24.1657 C14.5344,24.1717 14.5404,24.1767 14.5454,24.1827 C14.5594,24.1997 14.5744,24.2157 14.5904,24.2317 C14.6054,24.2477 14.6214,24.2607 14.6374,24.2757 C14.6434,24.2807 14.6484,24.2867 14.6554,24.2917 L22.2174,29.9627 C22.2694,30.0027 22.3264,30.0277 22.3844,30.0497 L22.3844,31.3487 C22.3844,31.6977 22.6674,31.9797 23.0144,31.9797 C23.3624,31.9797 23.6454,31.6977 23.6454,31.3487 L23.6454,16.2257 C23.6454,15.8777 23.3624,15.5957 23.0144,15.5957 C22.6674,15.5957 22.3844,15.8777 22.3844,16.2257 L22.3844,17.5227 C22.3254,17.5447 22.2694,17.5737 22.2174,17.6117 L14.6554,23.2837 C14.6514,23.2867 14.6484,23.2897 14.6444,23.2937 C14.6324,23.3037 14.6214,23.3157 14.6094,23.3257 C14.5854,23.3487 14.5634,23.3707 14.5434,23.3947 C14.5394,23.4007 14.5334,23.4047 14.5294,23.4097 C14.5224,23.4177 14.5184,23.4287 14.5124,23.4377 C14.4994,23.4567 14.4874,23.4757 14.4764,23.4977 C14.4674,23.5137 14.4594,23.5317 14.4524,23.5487 L14.4524,23.5487 Z M22.3844,19.0617 L22.3844,28.5127 L16.0844,23.7877 L22.3844,19.0617 Z" id="Fill-19" fill="#C1D52F"></path>
        </g>
    </g>
</svg>