<?xml version="1.0" encoding="UTF-8"?>
<svg width="200px" height="54px" viewBox="0 0 200 54" version="1.1" xmlns="http://www.w3.org/2000/svg" xmlns:xlink="http://www.w3.org/1999/xlink">
    <!-- Generator: Sketch 43.2 (39069) - http://www.bohemiancoding.com/sketch -->
    <title>logo</title>
    <desc>Created with Sketch.</desc>
    <defs></defs>
    <g id="Page-1" stroke="none" stroke-width="1" fill="none" fill-rule="evenodd">
        <g id="logo" fill-rule="nonzero">
            <path d="M35.9350355,53.1885106 L18.0371631,53.1885106 C17.7506383,53.1885106 17.4740426,53.0878014 17.2541844,52.9034043 L3.5435461,41.4012766 C3.32368794,41.2168794 3.17617021,40.9601418 3.12652482,40.6778723 L0.0187234043,23.0523404 C-0.0309219858,22.7700709 0.020141844,22.4792908 0.163404255,22.2310638 L9.11234043,6.73177305 C9.25560284,6.4835461 9.48255319,6.29347518 9.7506383,6.19560284 L26.569078,0.0721985816 C26.8385816,-0.0242553191 27.133617,-0.0242553191 27.4031206,0.0721985816 L44.2215603,6.19560284 C44.4910638,6.29347518 44.7180142,6.4835461 44.8612766,6.73177305 L53.8087943,22.2310638 C53.9534752,22.4792908 54.004539,22.7700709 53.9548936,23.0523404 L50.8456738,40.6778723 C50.7960284,40.9601418 50.6485106,41.2168794 50.4286525,41.4012766 L36.7194326,52.9034043 C36.4995745,53.0878014 36.2215603,53.1885106 35.9350355,53.1885106 L35.9350355,53.1885106 Z M18.4811348,50.7487943 L35.4910638,50.7487943 L48.5208511,39.8168794 L51.475461,23.0665248 L42.9704965,8.33602837 L26.9860993,2.51617021 L11.0031206,8.33602837 L2.49815603,23.0665248 L5.45134752,39.8168794 L18.4811348,50.7487943 Z" id="Fill-1" fill="#C1D52F"></path>
            <path d="M79.1164539,12.3390071 C78.3760284,11.4056738 77.4114894,10.8255319 76.2526241,10.6170213 C75.1590071,10.4184397 73.9036879,10.3191489 72.5178723,10.3191489 L67.2242553,10.3191489 L67.2242553,42.7333333 L70.207234,42.7333333 L70.207234,28.3304965 L73.0370213,28.3304965 C73.2171631,28.3304965 73.5051064,28.3234043 73.8965957,28.3078014 C74.2965957,28.2921986 74.7434043,28.2382979 75.2214184,28.1446809 C75.6994326,28.0510638 76.1987234,27.9106383 76.7008511,27.7262411 C77.2256738,27.5347518 77.7334752,27.2439716 78.1958865,26.8723404 C78.7207092,26.4865248 79.1391489,26.0439716 79.4370213,25.5574468 C79.7292199,25.0822695 79.9434043,24.5900709 80.0753191,24.093617 C80.2029787,23.6085106 80.2753191,23.1219858 80.2923404,22.6468085 C80.3079433,22.1957447 80.3150355,21.7588652 80.3150355,21.3375887 L80.3150355,17.7588652 C80.3150355,16.6170213 80.2540426,15.6070922 80.1334752,14.7546099 C80.0043972,13.8595745 79.6639716,13.0468085 79.1164539,12.3390071 M77.3788652,18.6141844 L77.3788652,21.3248227 C77.3788652,21.8085106 77.3419858,22.3304965 77.2696454,22.8751773 C77.2029787,23.3843972 77.0412766,23.8510638 76.7887943,24.2624113 C76.5448227,24.6567376 76.1547518,24.9929078 75.6270922,25.2567376 C75.0895035,25.5248227 74.3079433,25.6624113 73.3036879,25.6624113 L70.1632624,25.6624113 L70.1632624,12.9886525 L73.126383,12.9886525 C74.0923404,12.9886525 74.8724823,13.0737589 75.4441135,13.2411348 C75.9760284,13.3957447 76.3703546,13.6567376 76.6497872,14.035461 C76.9377305,14.4283688 77.1306383,14.9843972 77.2256738,15.6865248 C77.326383,16.4397163 77.3788652,17.4255319 77.3788652,18.6141844" id="Fill-4" fill="#FFFFFF"></path>
            <path d="M88.353617,10.1851064 L82.4486525,42.687234 L85.5337589,42.687234 L87.189078,33.0716312 L93.1805674,33.0716312 L94.789078,42.687234 L97.8770213,42.687234 L92.0174468,10.1851064 L88.353617,10.1851064 Z M92.6514894,30.2673759 L87.6770213,30.2673759 L90.189078,15.8361702 C90.1947518,15.8177305 90.1975887,15.8007092 90.2032624,15.7822695 C90.224539,15.9028369 90.2458156,16.0007092 90.2656738,16.077305 L92.6514894,30.2673759 Z" id="Fill-6" fill="#FFFFFF"></path>
            <path d="M110.92539,36.3209929 C110.92539,36.5521986 110.901277,36.9068085 110.860142,37.3819858 C110.820426,37.8287943 110.689929,38.282695 110.472908,38.7295035 C110.264397,39.1649645 109.921135,39.553617 109.457305,39.8869504 C109.004823,40.211773 108.338156,40.3763121 107.471489,40.3763121 C106.460142,40.3763121 105.681418,40.1819858 105.158014,39.7990071 C104.627518,39.4131915 104.236028,38.8926241 103.994894,38.2486525 C103.74383,37.5720567 103.594894,36.7748936 103.55234,35.8784397 C103.50695,34.9621277 103.485674,33.9819858 103.485674,32.966383 L103.485674,17.5805674 C103.485674,16.0571631 103.792057,14.8585816 104.394894,14.0174468 C104.977872,13.2046809 105.969362,12.8089362 107.427518,12.8089362 C107.986383,12.8089362 108.519716,12.9380142 109.010496,13.1919149 C109.491348,13.4415603 109.854468,13.8188652 110.111206,14.330922 C110.221844,14.5819858 110.311206,14.8415603 110.379291,15.1011348 C110.448794,15.3649645 110.504113,15.7280851 110.546667,16.1834043 C110.590638,16.6543262 110.610496,17.2685106 110.610496,18.0060993 L110.610496,21.3068085 L113.550922,21.3068085 L113.550922,16.5068085 C113.550922,15.6458156 113.462979,14.8912057 113.289929,14.2614184 C113.116879,13.6302128 112.891348,13.0926241 112.619007,12.6628369 C112.349504,12.2316312 112.05305,11.8798582 111.738156,11.6146099 C111.443121,11.366383 111.165106,11.1592908 110.919716,11.0046809 C110.375035,10.6529078 109.769362,10.4032624 109.119716,10.2614184 C107.640284,9.9351773 106.075745,9.98907801 104.636028,10.424539 C103.784965,10.682695 102.999149,11.1990071 102.318298,11.9451064 C101.424681,12.8046809 100.899858,13.7493617 100.753759,14.753617 C100.61617,15.6897872 100.548085,16.7919149 100.548085,18.0273759 L100.548085,35.1578723 C100.548085,35.9493617 100.579291,36.647234 100.640284,37.2316312 C100.701277,37.8302128 100.786383,38.3507801 100.894184,38.7819858 C101.006241,39.2273759 101.159433,39.6330496 101.355177,39.989078 C101.542411,40.3351773 101.766525,40.6713475 102.021844,40.989078 C102.526809,41.589078 103.18922,42.108227 103.987801,42.5323404 C104.800567,42.9621277 105.844539,43.1791489 107.094184,43.1791489 C108.763688,43.1791489 110.077163,42.8982979 110.999149,42.3436879 C111.914043,41.7904965 112.599149,41.1195745 113.030355,40.3507801 C113.455887,39.5947518 113.714043,38.824539 113.792057,38.0585816 C113.871489,37.3195745 113.908369,36.7507801 113.908369,36.3209929 L113.908369,31.072766 L110.92539,31.072766 L110.92539,36.3209929 Z" id="Fill-8" fill="#FFFFFF"></path>
            <path d="M129.766809,12.4956028 C129.158298,11.6005674 128.356879,10.9523404 127.379574,10.5679433 C125.400851,9.7906383 123.044823,9.83744681 121.132766,10.6147518 C120.111489,11.0289362 119.27461,11.7069504 118.641986,12.6232624 C118.260426,13.1665248 117.962553,13.8473759 117.758298,14.6473759 C117.558298,15.431773 117.454752,16.4785816 117.454752,17.7580142 L117.454752,35.5608511 C117.454752,35.892766 117.461844,36.2984397 117.477447,36.7792908 C117.494468,37.2785816 117.562553,37.8147518 117.687376,38.3693617 C117.812199,38.9339007 118.01078,39.4956028 118.273191,40.0388652 C118.549787,40.6019858 118.937021,41.115461 119.434894,41.5622695 C119.928511,42.0104965 120.571064,42.3807092 121.345532,42.6643972 C122.112908,42.9466667 123.051915,43.0899291 124.134184,43.0899291 C125.690213,43.0899291 126.94695,42.7920567 127.868936,42.2034043 C128.773901,41.6260993 129.443404,41.0104965 129.859007,40.3707801 C130.332766,39.6459574 130.636312,38.8587234 130.76539,38.0331915 C130.888794,37.2417021 130.949787,36.4998582 130.949787,35.8289362 L130.949787,18.4289362 C130.949787,17.4757447 130.902979,16.4700709 130.812199,15.4459574 C130.718582,14.3721986 130.366809,13.3807092 129.766809,12.4956028 M126.134184,39.9367376 C125.599433,40.257305 124.956879,40.421844 124.224965,40.421844 C123.321418,40.421844 122.518582,40.186383 121.843404,39.7253901 C121.224965,39.292766 120.824965,38.7438298 120.623546,38.0431206 C120.41078,37.3041135 120.304397,36.1920567 120.304397,34.7353191 L120.304397,17.2828369 C120.304397,17.1367376 120.311489,16.9112057 120.325674,16.6034043 C120.33844,16.3140426 120.380993,15.9948936 120.451915,15.6530496 C120.518582,15.328227 120.636312,14.9878014 120.803688,14.6402837 C120.963972,14.3055319 121.195177,13.9849645 121.49305,13.6870922 C122.169645,13.0048227 123.061844,12.6757447 124.224965,12.6757447 C124.744113,12.6757447 125.24766,12.7651064 125.725674,12.9438298 C126.195177,13.1182979 126.595177,13.3679433 126.905816,13.6814184 C127.471773,14.2743262 127.813617,15.0998582 127.922837,16.1339007 C128.041986,17.2374468 128.100142,18.4076596 128.100142,19.6161702 L128.100142,35.0502128 C128.100142,36.0615603 127.985248,37.0346099 127.755461,37.9424113 C127.539858,38.7906383 127.013617,39.4402837 126.134184,39.9367376" id="Fill-10" fill="#FFFFFF"></path>
            <path d="M157.136879,13.5678014 C156.385106,12.4670922 155.311348,11.6387234 153.948227,11.1053901 C152.613475,10.5834043 150.843262,10.3195745 148.690071,10.3195745 L145.633333,10.3195745 L145.633333,42.6883688 L150.166667,42.6883688 C151.456028,42.6883688 152.592199,42.5153191 153.536879,42.1734752 C154.482979,41.8316312 155.287234,41.389078 155.928369,40.8571631 C156.57234,40.3238298 157.088652,39.7337589 157.461702,39.1068085 C157.831915,38.4926241 158.114184,37.895461 158.304255,37.3238298 C158.397872,37.0202837 158.487234,36.6869504 158.580851,36.3224113 C158.671631,35.9507801 158.749645,35.4997163 158.812057,34.9777305 C158.87305,34.4585816 158.919858,33.847234 158.946809,33.1621277 C158.978014,32.4670922 158.993617,31.6344681 158.993617,30.6855319 L158.993617,23.6628369 C158.993617,21.3904965 158.87305,19.4004255 158.630496,17.7507801 C158.385106,16.06 157.88156,14.6529078 157.136879,13.5678014 M156.05461,23.6812766 L156.05461,30.8926241 C156.05461,32.3819858 155.98227,33.6217021 155.83617,34.5777305 C155.694326,35.5124823 155.508511,36.2855319 155.280142,36.872766 C155.057447,37.4443972 154.810638,37.8897872 154.54539,38.2004255 C154.270213,38.518156 153.992199,38.7748936 153.724113,38.9649645 C153.360993,39.2188652 152.992199,39.424539 152.633333,39.5777305 C152.28156,39.7280851 151.895745,39.8330496 151.485816,39.8883688 C151.060284,39.9451064 150.579433,39.9819858 150.05461,39.9961702 C149.619149,40.0089362 149.125532,40.0160284 148.570922,40.0188652 L148.570922,13.1238298 C149.183688,13.130922 149.812057,13.1521986 150.443262,13.189078 C151.179433,13.2316312 151.871631,13.3607092 152.504255,13.5734752 C153.115603,13.7791489 153.675887,14.1266667 154.165248,14.6060993 C154.65461,15.0855319 155.058865,15.7692199 155.360993,16.6259574 C155.619149,17.4302128 155.800709,18.4217021 155.902837,19.5692199 C156.003546,20.7380142 156.05461,22.1209929 156.05461,23.6812766" id="Fill-12" fill="#FFFFFF"></path>
            <polygon id="Fill-14" fill="#FFFFFF" points="163.256738 42.6879433 166.283688 42.6879433 166.283688 10.364539 163.256738 10.364539"></polygon>
            <path d="M175.03773,10.1851064 L169.132766,42.687234 L172.217872,42.687234 L173.871773,33.0716312 L179.863262,33.0716312 L181.473191,42.687234 L184.561135,42.687234 L178.70156,10.1851064 L175.03773,10.1851064 Z M179.334184,30.2673759 L174.358298,30.2673759 L176.873191,15.8361702 C176.878865,15.8177305 176.881702,15.8007092 176.885957,15.7836879 C176.907234,15.9028369 176.928511,16.0007092 176.948369,16.077305 L179.334184,30.2673759 Z" id="Fill-16" fill="#FFFFFF"></path>
            <path d="M192.984255,30.5792908 C193.504823,29.2034043 193.99844,27.8885106 194.460851,26.6346099 C194.921844,25.3807092 195.415461,24.0516312 195.937447,22.6487943 C196.458014,21.2459574 197.032482,19.7239716 197.658014,18.0814184 C198.282128,16.4402837 199.014043,14.528227 199.850922,12.3495035 L199.873617,10.3651064 L187.989929,10.3651064 L187.989929,13.0331915 L196.416879,13.0331915 L186.136028,40.7537589 L186.111915,42.6885106 L199.828227,42.6885106 L199.828227,40.0175887 L189.482128,40.0175887 C190.178582,38.1608511 190.797021,36.4984397 191.331773,35.031773 C191.910496,33.4360284 192.463688,31.950922 192.984255,30.5792908" id="Fill-17" fill="#FFFFFF"></path>
            <path d="M33.4729078,19.7831206 C33.4842553,19.7547518 33.4941844,19.7278014 33.502695,19.6994326 C33.5097872,19.6724823 33.5168794,19.6441135 33.5225532,19.6143262 C33.528227,19.5873759 33.5324823,19.5604255 33.5353191,19.5320567 C33.538156,19.5022695 33.5395745,19.4753191 33.5395745,19.4469504 C33.5395745,19.4171631 33.538156,19.3887943 33.5353191,19.3604255 C33.5324823,19.3306383 33.528227,19.3036879 33.5225532,19.2767376 C33.5168794,19.2483688 33.5097872,19.22 33.502695,19.1916312 C33.4941844,19.1632624 33.4842553,19.1363121 33.4729078,19.1079433 C33.4615603,19.0838298 33.4516312,19.0582979 33.4374468,19.032766 C33.4232624,19.0043972 33.4062411,18.9760284 33.3878014,18.9504965 C33.3792908,18.9363121 33.3721986,18.9221277 33.3636879,18.9093617 C33.3565957,18.9008511 33.3480851,18.8937589 33.3409929,18.8852482 C33.3211348,18.8611348 33.2998582,18.8370213 33.2771631,18.8157447 C33.2544681,18.7930496 33.2331915,18.7731915 33.2119149,18.7533333 C33.2019858,18.7462411 33.1948936,18.7377305 33.1849645,18.7306383 L22.4601418,10.6866667 C22.3849645,10.6313475 22.3041135,10.5916312 22.221844,10.5632624 L22.221844,8.72070922 C22.221844,8.2270922 21.821844,7.8270922 21.328227,7.8270922 C20.8346099,7.8270922 20.4346099,8.2270922 20.4346099,8.72070922 L20.4346099,30.171773 C20.4346099,30.6653901 20.8346099,31.0653901 21.328227,31.0653901 C21.821844,31.0653901 22.221844,30.6653901 22.221844,30.171773 L22.221844,28.3292199 C22.3055319,28.3008511 22.3849645,28.2611348 22.4601418,28.2058156 L33.1849645,20.1604255 C33.1906383,20.1575887 33.1948936,20.1504965 33.1991489,20.1462411 C33.2175887,20.1334752 33.2331915,20.1164539 33.2502128,20.1008511 C33.2842553,20.0696454 33.315461,20.0370213 33.3438298,20.0029787 C33.3495035,19.9958865 33.3580142,19.9902128 33.3636879,19.9831206 C33.3721986,19.9675177 33.3792908,19.9547518 33.3878014,19.9405674 C33.4062411,19.9150355 33.4232624,19.8866667 33.4374468,19.8582979 C33.4516312,19.832766 33.4615603,19.8100709 33.4729078,19.7831206 L33.4729078,19.7831206 Z M22.221844,26.149078 L22.221844,12.7434043 L31.1580142,19.4469504 L22.221844,26.149078 Z" id="Fill-18" fill="#C1D52F"></path>
            <path d="M20.4998582,33.4024113 C20.4885106,33.4307801 20.4785816,33.4591489 20.4700709,33.4875177 C20.4629787,33.5158865 20.4558865,33.5428369 20.4502128,33.5726241 C20.444539,33.5995745 20.4402837,33.6279433 20.4374468,33.6548936 C20.4346099,33.6846809 20.4331915,33.7116312 20.4331915,33.7414184 C20.4331915,33.7697872 20.4346099,33.798156 20.4374468,33.8265248 C20.4402837,33.8548936 20.444539,33.8832624 20.4502128,33.9102128 C20.4558865,33.9385816 20.4629787,33.9655319 20.4700709,33.9953191 C20.4785816,34.0236879 20.4885106,34.0506383 20.4998582,34.0775887 C20.5097872,34.104539 20.5211348,34.1286525 20.5339007,34.1541844 C20.5495035,34.1825532 20.5665248,34.2095035 20.5849645,34.2378723 C20.5934752,34.2506383 20.5991489,34.2634043 20.609078,34.2775887 C20.6161702,34.2860993 20.6246809,34.2931915 20.631773,34.3017021 C20.6516312,34.3258156 20.6729078,34.3485106 20.6956028,34.3712057 C20.7168794,34.3939007 20.7395745,34.4123404 20.7622695,34.433617 C20.7707801,34.4407092 20.7778723,34.4492199 20.7878014,34.4563121 L31.5140426,42.5002837 C31.5878014,42.5570213 31.6686525,42.5924823 31.750922,42.6236879 L31.750922,44.4662411 C31.750922,44.9612766 32.1523404,45.3612766 32.644539,45.3612766 C33.138156,45.3612766 33.5395745,44.9612766 33.5395745,44.4662411 L33.5395745,23.0151773 C33.5395745,22.5215603 33.138156,22.1215603 32.644539,22.1215603 C32.1523404,22.1215603 31.750922,22.5215603 31.750922,23.0151773 L31.750922,24.8548936 C31.667234,24.8860993 31.5878014,24.927234 31.5140426,24.9811348 L20.7878014,33.0265248 C20.7821277,33.0307801 20.7778723,33.0350355 20.7721986,33.0407092 C20.7551773,33.0548936 20.7395745,33.0719149 20.7225532,33.0860993 C20.6885106,33.1187234 20.657305,33.1499291 20.6289362,33.1839716 C20.6232624,33.1924823 20.6147518,33.198156 20.609078,33.2052482 C20.5991489,33.2165957 20.5934752,33.2321986 20.5849645,33.2449645 C20.5665248,33.2719149 20.5495035,33.2988652 20.5339007,33.3300709 C20.5211348,33.352766 20.5097872,33.3782979 20.4998582,33.4024113 L20.4998582,33.4024113 Z M31.750922,27.0378723 L31.750922,40.4435461 L22.8147518,33.7414184 L31.750922,27.0378723 Z" id="Fill-19" fill="#C1D52F"></path>
        </g>
    </g>
</svg>