<?xml version="1.0" encoding="UTF-8"?>
<svg width="29px" height="24px" viewBox="0 0 29 24" version="1.1" xmlns="http://www.w3.org/2000/svg" xmlns:xlink="http://www.w3.org/1999/xlink">
    <!-- Generator: Sketch 43.2 (39069) - http://www.bohemiancoding.com/sketch -->
    <title>twitter</title>
    <desc>Created with Sketch.</desc>
    <defs></defs>
    <g id="Page-1" stroke="none" stroke-width="1" fill="none" fill-rule="evenodd">
        <g id="twitter" fill-rule="nonzero" fill="#00AAEC">
            <path d="M28.8,2.8411701 C27.7417854,3.32307692 26.6024298,3.64897074 25.4072898,3.79458288 C26.6277864,3.04572047 27.5642892,1.85828819 28.0054938,0.443770314 C26.8627578,1.13716143 25.6000002,1.64160347 24.2510304,1.912026 C23.1759114,0.734994582 21.6393024,0 19.9387218,0 C16.6778658,0 14.0323296,2.71289274 14.0323296,6.05850486 C14.0323296,6.53347776 14.0830428,6.99458286 14.1844692,7.43835318 C9.2737452,7.18526544 4.9208664,4.77573132 2.0048598,1.10595883 C1.4960382,2.00390033 1.2052824,3.04572047 1.2052824,4.15514628 C1.2052824,6.25612134 2.2482834,8.11094256 3.8339142,9.19783314 C2.8669836,9.16836402 1.9541466,8.89274106 1.15626,8.44203684 L1.15626,8.5165764 C1.15626,11.4530878 3.1932384,13.9024919 5.89794,14.4572048 C5.4026412,14.5993499 4.8802956,14.6704225 4.3410462,14.6704225 C3.9606972,14.6704225 3.588801,14.6340195 3.2287374,14.5629469 C3.9809826,16.9690141 6.1616484,18.7215601 8.7480192,18.768364 C6.7262544,20.3943662 4.1770734,21.3633803 1.4098254,21.3633803 C0.9331218,21.3633803 0.4614894,21.3356446 0,21.2801734 C2.6151084,22.9963163 5.722134,24 9.057369,24 C19.9268886,24 25.8687798,14.7692308 25.8687798,6.76229688 C25.8687798,6.49880826 25.8637086,6.23531958 25.8535656,5.9770314 C27.0081354,5.12242686 28.010565,4.05633804 28.8,2.8411701" id="Twitter"></path>
        </g>
    </g>
</svg>